<?xml version="1.0" encoding="UTF-8" standalone="no"?>
<!-- This is a Stata 18.0 generated SVG file (http://www.stata.com) -->

<svg version="1.1" width="7.500in" height="4.500in" viewBox="0 0 5400 3240" xmlns="http://www.w3.org/2000/svg" xmlns:xlink="http://www.w3.org/1999/xlink">
	<desc>Stata Graph - Graph</desc>
	<rect x="0" y="0" width="5400" height="3240" style="fill:#FFFFFF;stroke:none"/>
	<rect x="0.00" y="0.00" width="5400.00" height="3240.00" style="fill:#FFFFFF"/>
	<rect x="3.24" y="3.24" width="5393.52" height="3233.52" style="fill:none;stroke:#FFFFFF;stroke-width:6.48"/>
	<rect x="557.72" y="113.40" width="2829.43" height="2653.26" style="fill:#FFFFFF"/>
	<rect x="560.96" y="116.64" width="2822.95" height="2646.78" style="fill:none;stroke:#FFFFFF;stroke-width:6.48"/>
	<line x1="557.72" y1="2766.66" x2="622.52" y2="2766.66" style="stroke:#F0F0F0;stroke-width:9.72"/>
	<line x1="654.92" y1="2766.66" x2="719.72" y2="2766.66" style="stroke:#F0F0F0;stroke-width:9.72"/>
	<line x1="752.12" y1="2766.66" x2="816.92" y2="2766.66" style="stroke:#F0F0F0;stroke-width:9.72"/>
	<line x1="849.32" y1="2766.66" x2="914.12" y2="2766.66" style="stroke:#F0F0F0;stroke-width:9.72"/>
	<line x1="946.52" y1="2766.66" x2="1011.32" y2="2766.66" style="stroke:#F0F0F0;stroke-width:9.72"/>
	<line x1="1043.72" y1="2766.66" x2="1108.52" y2="2766.66" style="stroke:#F0F0F0;stroke-width:9.72"/>
	<line x1="1140.92" y1="2766.66" x2="1205.72" y2="2766.66" style="stroke:#F0F0F0;stroke-width:9.72"/>
	<line x1="1238.12" y1="2766.66" x2="1302.92" y2="2766.66" style="stroke:#F0F0F0;stroke-width:9.72"/>
	<line x1="1335.32" y1="2766.66" x2="1400.12" y2="2766.66" style="stroke:#F0F0F0;stroke-width:9.72"/>
	<line x1="1432.52" y1="2766.66" x2="1497.32" y2="2766.66" style="stroke:#F0F0F0;stroke-width:9.72"/>
	<line x1="1529.72" y1="2766.66" x2="1594.52" y2="2766.66" style="stroke:#F0F0F0;stroke-width:9.72"/>
	<line x1="1626.92" y1="2766.66" x2="1691.72" y2="2766.66" style="stroke:#F0F0F0;stroke-width:9.72"/>
	<line x1="1724.12" y1="2766.66" x2="1788.92" y2="2766.66" style="stroke:#F0F0F0;stroke-width:9.72"/>
	<line x1="1821.32" y1="2766.66" x2="1886.12" y2="2766.66" style="stroke:#F0F0F0;stroke-width:9.72"/>
	<line x1="1918.52" y1="2766.66" x2="1983.32" y2="2766.66" style="stroke:#F0F0F0;stroke-width:9.72"/>
	<line x1="2015.72" y1="2766.66" x2="2080.52" y2="2766.66" style="stroke:#F0F0F0;stroke-width:9.72"/>
	<line x1="2112.92" y1="2766.66" x2="2177.72" y2="2766.66" style="stroke:#F0F0F0;stroke-width:9.72"/>
	<line x1="2210.12" y1="2766.66" x2="2274.92" y2="2766.66" style="stroke:#F0F0F0;stroke-width:9.72"/>
	<line x1="2307.32" y1="2766.66" x2="2372.12" y2="2766.66" style="stroke:#F0F0F0;stroke-width:9.72"/>
	<line x1="2404.52" y1="2766.66" x2="2469.32" y2="2766.66" style="stroke:#F0F0F0;stroke-width:9.72"/>
	<line x1="2501.72" y1="2766.66" x2="2566.52" y2="2766.66" style="stroke:#F0F0F0;stroke-width:9.72"/>
	<line x1="2598.92" y1="2766.66" x2="2663.72" y2="2766.66" style="stroke:#F0F0F0;stroke-width:9.72"/>
	<line x1="2696.12" y1="2766.66" x2="2760.92" y2="2766.66" style="stroke:#F0F0F0;stroke-width:9.72"/>
	<line x1="2793.32" y1="2766.66" x2="2858.12" y2="2766.66" style="stroke:#F0F0F0;stroke-width:9.72"/>
	<line x1="2890.52" y1="2766.66" x2="2955.32" y2="2766.66" style="stroke:#F0F0F0;stroke-width:9.72"/>
	<line x1="2987.72" y1="2766.66" x2="3052.52" y2="2766.66" style="stroke:#F0F0F0;stroke-width:9.72"/>
	<line x1="3084.92" y1="2766.66" x2="3149.72" y2="2766.66" style="stroke:#F0F0F0;stroke-width:9.72"/>
	<line x1="3182.12" y1="2766.66" x2="3246.92" y2="2766.66" style="stroke:#F0F0F0;stroke-width:9.72"/>
	<line x1="3279.32" y1="2766.66" x2="3344.12" y2="2766.66" style="stroke:#F0F0F0;stroke-width:9.72"/>
	<line x1="3376.52" y1="2766.66" x2="3387.15" y2="2766.66" style="stroke:#F0F0F0;stroke-width:9.72"/>
	<line x1="557.72" y1="1906.03" x2="622.52" y2="1906.03" style="stroke:#F0F0F0;stroke-width:9.72"/>
	<line x1="654.92" y1="1906.03" x2="719.72" y2="1906.03" style="stroke:#F0F0F0;stroke-width:9.72"/>
	<line x1="752.12" y1="1906.03" x2="816.92" y2="1906.03" style="stroke:#F0F0F0;stroke-width:9.72"/>
	<line x1="849.32" y1="1906.03" x2="914.12" y2="1906.03" style="stroke:#F0F0F0;stroke-width:9.72"/>
	<line x1="946.52" y1="1906.03" x2="1011.32" y2="1906.03" style="stroke:#F0F0F0;stroke-width:9.72"/>
	<line x1="1043.72" y1="1906.03" x2="1108.52" y2="1906.03" style="stroke:#F0F0F0;stroke-width:9.72"/>
	<line x1="1140.92" y1="1906.03" x2="1205.72" y2="1906.03" style="stroke:#F0F0F0;stroke-width:9.72"/>
	<line x1="1238.12" y1="1906.03" x2="1302.92" y2="1906.03" style="stroke:#F0F0F0;stroke-width:9.72"/>
	<line x1="1335.32" y1="1906.03" x2="1400.12" y2="1906.03" style="stroke:#F0F0F0;stroke-width:9.72"/>
	<line x1="1432.52" y1="1906.03" x2="1497.32" y2="1906.03" style="stroke:#F0F0F0;stroke-width:9.72"/>
	<line x1="1529.72" y1="1906.03" x2="1594.52" y2="1906.03" style="stroke:#F0F0F0;stroke-width:9.72"/>
	<line x1="1626.92" y1="1906.03" x2="1691.72" y2="1906.03" style="stroke:#F0F0F0;stroke-width:9.72"/>
	<line x1="1724.12" y1="1906.03" x2="1788.92" y2="1906.03" style="stroke:#F0F0F0;stroke-width:9.72"/>
	<line x1="1821.32" y1="1906.03" x2="1886.12" y2="1906.03" style="stroke:#F0F0F0;stroke-width:9.72"/>
	<line x1="1918.52" y1="1906.03" x2="1983.32" y2="1906.03" style="stroke:#F0F0F0;stroke-width:9.72"/>
	<line x1="2015.72" y1="1906.03" x2="2080.52" y2="1906.03" style="stroke:#F0F0F0;stroke-width:9.72"/>
	<line x1="2112.92" y1="1906.03" x2="2177.72" y2="1906.03" style="stroke:#F0F0F0;stroke-width:9.72"/>
	<line x1="2210.12" y1="1906.03" x2="2274.92" y2="1906.03" style="stroke:#F0F0F0;stroke-width:9.72"/>
	<line x1="2307.32" y1="1906.03" x2="2372.12" y2="1906.03" style="stroke:#F0F0F0;stroke-width:9.72"/>
	<line x1="2404.52" y1="1906.03" x2="2469.32" y2="1906.03" style="stroke:#F0F0F0;stroke-width:9.72"/>
	<line x1="2501.72" y1="1906.03" x2="2566.52" y2="1906.03" style="stroke:#F0F0F0;stroke-width:9.72"/>
	<line x1="2598.92" y1="1906.03" x2="2663.72" y2="1906.03" style="stroke:#F0F0F0;stroke-width:9.72"/>
	<line x1="2696.12" y1="1906.03" x2="2760.92" y2="1906.03" style="stroke:#F0F0F0;stroke-width:9.72"/>
	<line x1="2793.32" y1="1906.03" x2="2858.12" y2="1906.03" style="stroke:#F0F0F0;stroke-width:9.72"/>
	<line x1="2890.52" y1="1906.03" x2="2955.32" y2="1906.03" style="stroke:#F0F0F0;stroke-width:9.72"/>
	<line x1="2987.72" y1="1906.03" x2="3052.52" y2="1906.03" style="stroke:#F0F0F0;stroke-width:9.72"/>
	<line x1="3084.92" y1="1906.03" x2="3149.72" y2="1906.03" style="stroke:#F0F0F0;stroke-width:9.72"/>
	<line x1="3182.12" y1="1906.03" x2="3246.92" y2="1906.03" style="stroke:#F0F0F0;stroke-width:9.72"/>
	<line x1="3279.32" y1="1906.03" x2="3344.12" y2="1906.03" style="stroke:#F0F0F0;stroke-width:9.72"/>
	<line x1="3376.52" y1="1906.03" x2="3387.15" y2="1906.03" style="stroke:#F0F0F0;stroke-width:9.72"/>
	<line x1="557.72" y1="1045.41" x2="622.52" y2="1045.41" style="stroke:#F0F0F0;stroke-width:9.72"/>
	<line x1="654.92" y1="1045.41" x2="719.72" y2="1045.41" style="stroke:#F0F0F0;stroke-width:9.72"/>
	<line x1="752.12" y1="1045.41" x2="816.92" y2="1045.41" style="stroke:#F0F0F0;stroke-width:9.72"/>
	<line x1="849.32" y1="1045.41" x2="914.12" y2="1045.41" style="stroke:#F0F0F0;stroke-width:9.72"/>
	<line x1="946.52" y1="1045.41" x2="1011.32" y2="1045.41" style="stroke:#F0F0F0;stroke-width:9.72"/>
	<line x1="1043.72" y1="1045.41" x2="1108.52" y2="1045.41" style="stroke:#F0F0F0;stroke-width:9.72"/>
	<line x1="1140.92" y1="1045.41" x2="1205.72" y2="1045.41" style="stroke:#F0F0F0;stroke-width:9.72"/>
	<line x1="1238.12" y1="1045.41" x2="1302.92" y2="1045.41" style="stroke:#F0F0F0;stroke-width:9.72"/>
	<line x1="1335.32" y1="1045.41" x2="1400.12" y2="1045.41" style="stroke:#F0F0F0;stroke-width:9.72"/>
	<line x1="1432.52" y1="1045.41" x2="1497.32" y2="1045.41" style="stroke:#F0F0F0;stroke-width:9.72"/>
	<line x1="1529.72" y1="1045.41" x2="1594.52" y2="1045.41" style="stroke:#F0F0F0;stroke-width:9.72"/>
	<line x1="1626.92" y1="1045.41" x2="1691.72" y2="1045.41" style="stroke:#F0F0F0;stroke-width:9.72"/>
	<line x1="1724.12" y1="1045.41" x2="1788.92" y2="1045.41" style="stroke:#F0F0F0;stroke-width:9.72"/>
	<line x1="1821.32" y1="1045.41" x2="1886.12" y2="1045.41" style="stroke:#F0F0F0;stroke-width:9.72"/>
	<line x1="1918.52" y1="1045.41" x2="1983.32" y2="1045.41" style="stroke:#F0F0F0;stroke-width:9.72"/>
	<line x1="2015.72" y1="1045.41" x2="2080.52" y2="1045.41" style="stroke:#F0F0F0;stroke-width:9.72"/>
	<line x1="2112.92" y1="1045.41" x2="2177.72" y2="1045.41" style="stroke:#F0F0F0;stroke-width:9.72"/>
	<line x1="2210.12" y1="1045.41" x2="2274.92" y2="1045.41" style="stroke:#F0F0F0;stroke-width:9.72"/>
	<line x1="2307.32" y1="1045.41" x2="2372.12" y2="1045.41" style="stroke:#F0F0F0;stroke-width:9.72"/>
	<line x1="2404.52" y1="1045.41" x2="2469.32" y2="1045.41" style="stroke:#F0F0F0;stroke-width:9.72"/>
	<line x1="2501.72" y1="1045.41" x2="2566.52" y2="1045.41" style="stroke:#F0F0F0;stroke-width:9.72"/>
	<line x1="2598.92" y1="1045.41" x2="2663.72" y2="1045.41" style="stroke:#F0F0F0;stroke-width:9.72"/>
	<line x1="2696.12" y1="1045.41" x2="2760.92" y2="1045.41" style="stroke:#F0F0F0;stroke-width:9.72"/>
	<line x1="2793.32" y1="1045.41" x2="2858.12" y2="1045.41" style="stroke:#F0F0F0;stroke-width:9.72"/>
	<line x1="2890.52" y1="1045.41" x2="2955.32" y2="1045.41" style="stroke:#F0F0F0;stroke-width:9.72"/>
	<line x1="2987.72" y1="1045.41" x2="3052.52" y2="1045.41" style="stroke:#F0F0F0;stroke-width:9.72"/>
	<line x1="3084.92" y1="1045.41" x2="3149.72" y2="1045.41" style="stroke:#F0F0F0;stroke-width:9.72"/>
	<line x1="3182.12" y1="1045.41" x2="3246.92" y2="1045.41" style="stroke:#F0F0F0;stroke-width:9.72"/>
	<line x1="3279.32" y1="1045.41" x2="3344.12" y2="1045.41" style="stroke:#F0F0F0;stroke-width:9.72"/>
	<line x1="3376.52" y1="1045.41" x2="3387.15" y2="1045.41" style="stroke:#F0F0F0;stroke-width:9.72"/>
	<line x1="557.72" y1="184.61" x2="622.52" y2="184.61" style="stroke:#F0F0F0;stroke-width:9.72"/>
	<line x1="654.92" y1="184.61" x2="719.72" y2="184.61" style="stroke:#F0F0F0;stroke-width:9.72"/>
	<line x1="752.12" y1="184.61" x2="816.92" y2="184.61" style="stroke:#F0F0F0;stroke-width:9.72"/>
	<line x1="849.32" y1="184.61" x2="914.12" y2="184.61" style="stroke:#F0F0F0;stroke-width:9.72"/>
	<line x1="946.52" y1="184.61" x2="1011.32" y2="184.61" style="stroke:#F0F0F0;stroke-width:9.72"/>
	<line x1="1043.72" y1="184.61" x2="1108.52" y2="184.61" style="stroke:#F0F0F0;stroke-width:9.72"/>
	<line x1="1140.92" y1="184.61" x2="1205.72" y2="184.61" style="stroke:#F0F0F0;stroke-width:9.72"/>
	<line x1="1238.12" y1="184.61" x2="1302.92" y2="184.61" style="stroke:#F0F0F0;stroke-width:9.72"/>
	<line x1="1335.32" y1="184.61" x2="1400.12" y2="184.61" style="stroke:#F0F0F0;stroke-width:9.72"/>
	<line x1="1432.52" y1="184.61" x2="1497.32" y2="184.61" style="stroke:#F0F0F0;stroke-width:9.72"/>
	<line x1="1529.72" y1="184.61" x2="1594.52" y2="184.61" style="stroke:#F0F0F0;stroke-width:9.72"/>
	<line x1="1626.92" y1="184.61" x2="1691.72" y2="184.61" style="stroke:#F0F0F0;stroke-width:9.72"/>
	<line x1="1724.12" y1="184.61" x2="1788.92" y2="184.61" style="stroke:#F0F0F0;stroke-width:9.72"/>
	<line x1="1821.32" y1="184.61" x2="1886.12" y2="184.61" style="stroke:#F0F0F0;stroke-width:9.72"/>
	<line x1="1918.52" y1="184.61" x2="1983.32" y2="184.61" style="stroke:#F0F0F0;stroke-width:9.72"/>
	<line x1="2015.72" y1="184.61" x2="2080.52" y2="184.61" style="stroke:#F0F0F0;stroke-width:9.72"/>
	<line x1="2112.92" y1="184.61" x2="2177.72" y2="184.61" style="stroke:#F0F0F0;stroke-width:9.72"/>
	<line x1="2210.12" y1="184.61" x2="2274.92" y2="184.61" style="stroke:#F0F0F0;stroke-width:9.72"/>
	<line x1="2307.32" y1="184.61" x2="2372.12" y2="184.61" style="stroke:#F0F0F0;stroke-width:9.72"/>
	<line x1="2404.52" y1="184.61" x2="2469.32" y2="184.61" style="stroke:#F0F0F0;stroke-width:9.72"/>
	<line x1="2501.72" y1="184.61" x2="2566.52" y2="184.61" style="stroke:#F0F0F0;stroke-width:9.72"/>
	<line x1="2598.92" y1="184.61" x2="2663.72" y2="184.61" style="stroke:#F0F0F0;stroke-width:9.72"/>
	<line x1="2696.12" y1="184.61" x2="2760.92" y2="184.61" style="stroke:#F0F0F0;stroke-width:9.72"/>
	<line x1="2793.32" y1="184.61" x2="2858.12" y2="184.61" style="stroke:#F0F0F0;stroke-width:9.72"/>
	<line x1="2890.52" y1="184.61" x2="2955.32" y2="184.61" style="stroke:#F0F0F0;stroke-width:9.72"/>
	<line x1="2987.72" y1="184.61" x2="3052.52" y2="184.61" style="stroke:#F0F0F0;stroke-width:9.72"/>
	<line x1="3084.92" y1="184.61" x2="3149.72" y2="184.61" style="stroke:#F0F0F0;stroke-width:9.72"/>
	<line x1="3182.12" y1="184.61" x2="3246.92" y2="184.61" style="stroke:#F0F0F0;stroke-width:9.72"/>
	<line x1="3279.32" y1="184.61" x2="3344.12" y2="184.61" style="stroke:#F0F0F0;stroke-width:9.72"/>
	<line x1="3376.52" y1="184.61" x2="3387.15" y2="184.61" style="stroke:#F0F0F0;stroke-width:9.72"/>
	<line x1="656.61" y1="2766.66" x2="656.61" y2="2701.86" style="stroke:#F0F0F0;stroke-width:9.72"/>
	<line x1="656.61" y1="2669.46" x2="656.61" y2="2604.66" style="stroke:#F0F0F0;stroke-width:9.72"/>
	<line x1="656.61" y1="2572.26" x2="656.61" y2="2507.46" style="stroke:#F0F0F0;stroke-width:9.72"/>
	<line x1="656.61" y1="2475.06" x2="656.61" y2="2410.26" style="stroke:#F0F0F0;stroke-width:9.72"/>
	<line x1="656.61" y1="2377.86" x2="656.61" y2="2313.06" style="stroke:#F0F0F0;stroke-width:9.72"/>
	<line x1="656.61" y1="2280.66" x2="656.61" y2="2215.86" style="stroke:#F0F0F0;stroke-width:9.72"/>
	<line x1="656.61" y1="2183.46" x2="656.61" y2="2118.66" style="stroke:#F0F0F0;stroke-width:9.72"/>
	<line x1="656.61" y1="2086.26" x2="656.61" y2="2021.46" style="stroke:#F0F0F0;stroke-width:9.72"/>
	<line x1="656.61" y1="1989.06" x2="656.61" y2="1924.26" style="stroke:#F0F0F0;stroke-width:9.72"/>
	<line x1="656.61" y1="1891.86" x2="656.61" y2="1827.06" style="stroke:#F0F0F0;stroke-width:9.72"/>
	<line x1="656.61" y1="1794.66" x2="656.61" y2="1729.86" style="stroke:#F0F0F0;stroke-width:9.72"/>
	<line x1="656.61" y1="1697.46" x2="656.61" y2="1632.66" style="stroke:#F0F0F0;stroke-width:9.72"/>
	<line x1="656.61" y1="1600.26" x2="656.61" y2="1535.46" style="stroke:#F0F0F0;stroke-width:9.72"/>
	<line x1="656.61" y1="1503.06" x2="656.61" y2="1438.26" style="stroke:#F0F0F0;stroke-width:9.72"/>
	<line x1="656.61" y1="1405.86" x2="656.61" y2="1341.06" style="stroke:#F0F0F0;stroke-width:9.72"/>
	<line x1="656.61" y1="1308.66" x2="656.61" y2="1243.86" style="stroke:#F0F0F0;stroke-width:9.72"/>
	<line x1="656.61" y1="1211.46" x2="656.61" y2="1146.66" style="stroke:#F0F0F0;stroke-width:9.72"/>
	<line x1="656.61" y1="1114.26" x2="656.61" y2="1049.46" style="stroke:#F0F0F0;stroke-width:9.72"/>
	<line x1="656.61" y1="1017.06" x2="656.61" y2="952.26" style="stroke:#F0F0F0;stroke-width:9.72"/>
	<line x1="656.61" y1="919.86" x2="656.61" y2="855.06" style="stroke:#F0F0F0;stroke-width:9.72"/>
	<line x1="656.61" y1="822.66" x2="656.61" y2="757.86" style="stroke:#F0F0F0;stroke-width:9.72"/>
	<line x1="656.61" y1="725.46" x2="656.61" y2="660.66" style="stroke:#F0F0F0;stroke-width:9.72"/>
	<line x1="656.61" y1="628.26" x2="656.61" y2="563.46" style="stroke:#F0F0F0;stroke-width:9.72"/>
	<line x1="656.61" y1="531.06" x2="656.61" y2="466.26" style="stroke:#F0F0F0;stroke-width:9.72"/>
	<line x1="656.61" y1="433.86" x2="656.61" y2="369.06" style="stroke:#F0F0F0;stroke-width:9.72"/>
	<line x1="656.61" y1="336.66" x2="656.61" y2="271.86" style="stroke:#F0F0F0;stroke-width:9.72"/>
	<line x1="656.61" y1="239.46" x2="656.61" y2="174.66" style="stroke:#F0F0F0;stroke-width:9.72"/>
	<line x1="656.61" y1="142.26" x2="656.61" y2="113.40" style="stroke:#F0F0F0;stroke-width:9.72"/>
	<line x1="1260.90" y1="2766.66" x2="1260.90" y2="2701.86" style="stroke:#F0F0F0;stroke-width:9.72"/>
	<line x1="1260.90" y1="2669.46" x2="1260.90" y2="2604.66" style="stroke:#F0F0F0;stroke-width:9.72"/>
	<line x1="1260.90" y1="2572.26" x2="1260.90" y2="2507.46" style="stroke:#F0F0F0;stroke-width:9.72"/>
	<line x1="1260.90" y1="2475.06" x2="1260.90" y2="2410.26" style="stroke:#F0F0F0;stroke-width:9.72"/>
	<line x1="1260.90" y1="2377.86" x2="1260.90" y2="2313.06" style="stroke:#F0F0F0;stroke-width:9.72"/>
	<line x1="1260.90" y1="2280.66" x2="1260.90" y2="2215.86" style="stroke:#F0F0F0;stroke-width:9.72"/>
	<line x1="1260.90" y1="2183.46" x2="1260.90" y2="2118.66" style="stroke:#F0F0F0;stroke-width:9.72"/>
	<line x1="1260.90" y1="2086.26" x2="1260.90" y2="2021.46" style="stroke:#F0F0F0;stroke-width:9.72"/>
	<line x1="1260.90" y1="1989.06" x2="1260.90" y2="1924.26" style="stroke:#F0F0F0;stroke-width:9.72"/>
	<line x1="1260.90" y1="1891.86" x2="1260.90" y2="1827.06" style="stroke:#F0F0F0;stroke-width:9.72"/>
	<line x1="1260.90" y1="1794.66" x2="1260.90" y2="1729.86" style="stroke:#F0F0F0;stroke-width:9.72"/>
	<line x1="1260.90" y1="1697.46" x2="1260.90" y2="1632.66" style="stroke:#F0F0F0;stroke-width:9.72"/>
	<line x1="1260.90" y1="1600.26" x2="1260.90" y2="1535.46" style="stroke:#F0F0F0;stroke-width:9.72"/>
	<line x1="1260.90" y1="1503.06" x2="1260.90" y2="1438.26" style="stroke:#F0F0F0;stroke-width:9.72"/>
	<line x1="1260.90" y1="1405.86" x2="1260.90" y2="1341.06" style="stroke:#F0F0F0;stroke-width:9.72"/>
	<line x1="1260.90" y1="1308.66" x2="1260.90" y2="1243.86" style="stroke:#F0F0F0;stroke-width:9.72"/>
	<line x1="1260.90" y1="1211.46" x2="1260.90" y2="1146.66" style="stroke:#F0F0F0;stroke-width:9.72"/>
	<line x1="1260.90" y1="1114.26" x2="1260.90" y2="1049.46" style="stroke:#F0F0F0;stroke-width:9.72"/>
	<line x1="1260.90" y1="1017.06" x2="1260.90" y2="952.26" style="stroke:#F0F0F0;stroke-width:9.72"/>
	<line x1="1260.90" y1="919.86" x2="1260.90" y2="855.06" style="stroke:#F0F0F0;stroke-width:9.72"/>
	<line x1="1260.90" y1="822.66" x2="1260.90" y2="757.86" style="stroke:#F0F0F0;stroke-width:9.72"/>
	<line x1="1260.90" y1="725.46" x2="1260.90" y2="660.66" style="stroke:#F0F0F0;stroke-width:9.72"/>
	<line x1="1260.90" y1="628.26" x2="1260.90" y2="563.46" style="stroke:#F0F0F0;stroke-width:9.72"/>
	<line x1="1260.90" y1="531.06" x2="1260.90" y2="466.26" style="stroke:#F0F0F0;stroke-width:9.72"/>
	<line x1="1260.90" y1="433.86" x2="1260.90" y2="369.06" style="stroke:#F0F0F0;stroke-width:9.72"/>
	<line x1="1260.90" y1="336.66" x2="1260.90" y2="271.86" style="stroke:#F0F0F0;stroke-width:9.72"/>
	<line x1="1260.90" y1="239.46" x2="1260.90" y2="174.66" style="stroke:#F0F0F0;stroke-width:9.72"/>
	<line x1="1260.90" y1="142.26" x2="1260.90" y2="113.40" style="stroke:#F0F0F0;stroke-width:9.72"/>
	<line x1="1865.03" y1="2766.66" x2="1865.03" y2="2701.86" style="stroke:#F0F0F0;stroke-width:9.72"/>
	<line x1="1865.03" y1="2669.46" x2="1865.03" y2="2604.66" style="stroke:#F0F0F0;stroke-width:9.72"/>
	<line x1="1865.03" y1="2572.26" x2="1865.03" y2="2507.46" style="stroke:#F0F0F0;stroke-width:9.72"/>
	<line x1="1865.03" y1="2475.06" x2="1865.03" y2="2410.26" style="stroke:#F0F0F0;stroke-width:9.72"/>
	<line x1="1865.03" y1="2377.86" x2="1865.03" y2="2313.06" style="stroke:#F0F0F0;stroke-width:9.72"/>
	<line x1="1865.03" y1="2280.66" x2="1865.03" y2="2215.86" style="stroke:#F0F0F0;stroke-width:9.72"/>
	<line x1="1865.03" y1="2183.46" x2="1865.03" y2="2118.66" style="stroke:#F0F0F0;stroke-width:9.72"/>
	<line x1="1865.03" y1="2086.26" x2="1865.03" y2="2021.46" style="stroke:#F0F0F0;stroke-width:9.72"/>
	<line x1="1865.03" y1="1989.06" x2="1865.03" y2="1924.26" style="stroke:#F0F0F0;stroke-width:9.72"/>
	<line x1="1865.03" y1="1891.86" x2="1865.03" y2="1827.06" style="stroke:#F0F0F0;stroke-width:9.72"/>
	<line x1="1865.03" y1="1794.66" x2="1865.03" y2="1729.86" style="stroke:#F0F0F0;stroke-width:9.72"/>
	<line x1="1865.03" y1="1697.46" x2="1865.03" y2="1632.66" style="stroke:#F0F0F0;stroke-width:9.72"/>
	<line x1="1865.03" y1="1600.26" x2="1865.03" y2="1535.46" style="stroke:#F0F0F0;stroke-width:9.72"/>
	<line x1="1865.03" y1="1503.06" x2="1865.03" y2="1438.26" style="stroke:#F0F0F0;stroke-width:9.72"/>
	<line x1="1865.03" y1="1405.86" x2="1865.03" y2="1341.06" style="stroke:#F0F0F0;stroke-width:9.72"/>
	<line x1="1865.03" y1="1308.66" x2="1865.03" y2="1243.86" style="stroke:#F0F0F0;stroke-width:9.72"/>
	<line x1="1865.03" y1="1211.46" x2="1865.03" y2="1146.66" style="stroke:#F0F0F0;stroke-width:9.72"/>
	<line x1="1865.03" y1="1114.26" x2="1865.03" y2="1049.46" style="stroke:#F0F0F0;stroke-width:9.72"/>
	<line x1="1865.03" y1="1017.06" x2="1865.03" y2="952.26" style="stroke:#F0F0F0;stroke-width:9.72"/>
	<line x1="1865.03" y1="919.86" x2="1865.03" y2="855.06" style="stroke:#F0F0F0;stroke-width:9.72"/>
	<line x1="1865.03" y1="822.66" x2="1865.03" y2="757.86" style="stroke:#F0F0F0;stroke-width:9.72"/>
	<line x1="1865.03" y1="725.46" x2="1865.03" y2="660.66" style="stroke:#F0F0F0;stroke-width:9.72"/>
	<line x1="1865.03" y1="628.26" x2="1865.03" y2="563.46" style="stroke:#F0F0F0;stroke-width:9.72"/>
	<line x1="1865.03" y1="531.06" x2="1865.03" y2="466.26" style="stroke:#F0F0F0;stroke-width:9.72"/>
	<line x1="1865.03" y1="433.86" x2="1865.03" y2="369.06" style="stroke:#F0F0F0;stroke-width:9.72"/>
	<line x1="1865.03" y1="336.66" x2="1865.03" y2="271.86" style="stroke:#F0F0F0;stroke-width:9.72"/>
	<line x1="1865.03" y1="239.46" x2="1865.03" y2="174.66" style="stroke:#F0F0F0;stroke-width:9.72"/>
	<line x1="1865.03" y1="142.26" x2="1865.03" y2="113.40" style="stroke:#F0F0F0;stroke-width:9.72"/>
	<line x1="2469.15" y1="2766.66" x2="2469.15" y2="2701.86" style="stroke:#F0F0F0;stroke-width:9.72"/>
	<line x1="2469.15" y1="2669.46" x2="2469.15" y2="2604.66" style="stroke:#F0F0F0;stroke-width:9.72"/>
	<line x1="2469.15" y1="2572.26" x2="2469.15" y2="2507.46" style="stroke:#F0F0F0;stroke-width:9.72"/>
	<line x1="2469.15" y1="2475.06" x2="2469.15" y2="2410.26" style="stroke:#F0F0F0;stroke-width:9.72"/>
	<line x1="2469.15" y1="2377.86" x2="2469.15" y2="2313.06" style="stroke:#F0F0F0;stroke-width:9.72"/>
	<line x1="2469.15" y1="2280.66" x2="2469.15" y2="2215.86" style="stroke:#F0F0F0;stroke-width:9.72"/>
	<line x1="2469.15" y1="2183.46" x2="2469.15" y2="2118.66" style="stroke:#F0F0F0;stroke-width:9.72"/>
	<line x1="2469.15" y1="2086.26" x2="2469.15" y2="2021.46" style="stroke:#F0F0F0;stroke-width:9.72"/>
	<line x1="2469.15" y1="1989.06" x2="2469.15" y2="1924.26" style="stroke:#F0F0F0;stroke-width:9.72"/>
	<line x1="2469.15" y1="1891.86" x2="2469.15" y2="1827.06" style="stroke:#F0F0F0;stroke-width:9.72"/>
	<line x1="2469.15" y1="1794.66" x2="2469.15" y2="1729.86" style="stroke:#F0F0F0;stroke-width:9.72"/>
	<line x1="2469.15" y1="1697.46" x2="2469.15" y2="1632.66" style="stroke:#F0F0F0;stroke-width:9.72"/>
	<line x1="2469.15" y1="1600.26" x2="2469.15" y2="1535.46" style="stroke:#F0F0F0;stroke-width:9.72"/>
	<line x1="2469.15" y1="1503.06" x2="2469.15" y2="1438.26" style="stroke:#F0F0F0;stroke-width:9.72"/>
	<line x1="2469.15" y1="1405.86" x2="2469.15" y2="1341.06" style="stroke:#F0F0F0;stroke-width:9.72"/>
	<line x1="2469.15" y1="1308.66" x2="2469.15" y2="1243.86" style="stroke:#F0F0F0;stroke-width:9.72"/>
	<line x1="2469.15" y1="1211.46" x2="2469.15" y2="1146.66" style="stroke:#F0F0F0;stroke-width:9.72"/>
	<line x1="2469.15" y1="1114.26" x2="2469.15" y2="1049.46" style="stroke:#F0F0F0;stroke-width:9.72"/>
	<line x1="2469.15" y1="1017.06" x2="2469.15" y2="952.26" style="stroke:#F0F0F0;stroke-width:9.72"/>
	<line x1="2469.15" y1="919.86" x2="2469.15" y2="855.06" style="stroke:#F0F0F0;stroke-width:9.72"/>
	<line x1="2469.15" y1="822.66" x2="2469.15" y2="757.86" style="stroke:#F0F0F0;stroke-width:9.72"/>
	<line x1="2469.15" y1="725.46" x2="2469.15" y2="660.66" style="stroke:#F0F0F0;stroke-width:9.72"/>
	<line x1="2469.15" y1="628.26" x2="2469.15" y2="563.46" style="stroke:#F0F0F0;stroke-width:9.72"/>
	<line x1="2469.15" y1="531.06" x2="2469.15" y2="466.26" style="stroke:#F0F0F0;stroke-width:9.72"/>
	<line x1="2469.15" y1="433.86" x2="2469.15" y2="369.06" style="stroke:#F0F0F0;stroke-width:9.72"/>
	<line x1="2469.15" y1="336.66" x2="2469.15" y2="271.86" style="stroke:#F0F0F0;stroke-width:9.72"/>
	<line x1="2469.15" y1="239.46" x2="2469.15" y2="174.66" style="stroke:#F0F0F0;stroke-width:9.72"/>
	<line x1="2469.15" y1="142.26" x2="2469.15" y2="113.40" style="stroke:#F0F0F0;stroke-width:9.72"/>
	<line x1="3073.44" y1="2766.66" x2="3073.44" y2="2701.86" style="stroke:#F0F0F0;stroke-width:9.72"/>
	<line x1="3073.44" y1="2669.46" x2="3073.44" y2="2604.66" style="stroke:#F0F0F0;stroke-width:9.72"/>
	<line x1="3073.44" y1="2572.26" x2="3073.44" y2="2507.46" style="stroke:#F0F0F0;stroke-width:9.72"/>
	<line x1="3073.44" y1="2475.06" x2="3073.44" y2="2410.26" style="stroke:#F0F0F0;stroke-width:9.72"/>
	<line x1="3073.44" y1="2377.86" x2="3073.44" y2="2313.06" style="stroke:#F0F0F0;stroke-width:9.72"/>
	<line x1="3073.44" y1="2280.66" x2="3073.44" y2="2215.86" style="stroke:#F0F0F0;stroke-width:9.72"/>
	<line x1="3073.44" y1="2183.46" x2="3073.44" y2="2118.66" style="stroke:#F0F0F0;stroke-width:9.72"/>
	<line x1="3073.44" y1="2086.26" x2="3073.44" y2="2021.46" style="stroke:#F0F0F0;stroke-width:9.72"/>
	<line x1="3073.44" y1="1989.06" x2="3073.44" y2="1924.26" style="stroke:#F0F0F0;stroke-width:9.72"/>
	<line x1="3073.44" y1="1891.86" x2="3073.44" y2="1827.06" style="stroke:#F0F0F0;stroke-width:9.72"/>
	<line x1="3073.44" y1="1794.66" x2="3073.44" y2="1729.86" style="stroke:#F0F0F0;stroke-width:9.72"/>
	<line x1="3073.44" y1="1697.46" x2="3073.44" y2="1632.66" style="stroke:#F0F0F0;stroke-width:9.72"/>
	<line x1="3073.44" y1="1600.26" x2="3073.44" y2="1535.46" style="stroke:#F0F0F0;stroke-width:9.72"/>
	<line x1="3073.44" y1="1503.06" x2="3073.44" y2="1438.26" style="stroke:#F0F0F0;stroke-width:9.72"/>
	<line x1="3073.44" y1="1405.86" x2="3073.44" y2="1341.06" style="stroke:#F0F0F0;stroke-width:9.72"/>
	<line x1="3073.44" y1="1308.66" x2="3073.44" y2="1243.86" style="stroke:#F0F0F0;stroke-width:9.72"/>
	<line x1="3073.44" y1="1211.46" x2="3073.44" y2="1146.66" style="stroke:#F0F0F0;stroke-width:9.72"/>
	<line x1="3073.44" y1="1114.26" x2="3073.44" y2="1049.46" style="stroke:#F0F0F0;stroke-width:9.72"/>
	<line x1="3073.44" y1="1017.06" x2="3073.44" y2="952.26" style="stroke:#F0F0F0;stroke-width:9.72"/>
	<line x1="3073.44" y1="919.86" x2="3073.44" y2="855.06" style="stroke:#F0F0F0;stroke-width:9.72"/>
	<line x1="3073.44" y1="822.66" x2="3073.44" y2="757.86" style="stroke:#F0F0F0;stroke-width:9.72"/>
	<line x1="3073.44" y1="725.46" x2="3073.44" y2="660.66" style="stroke:#F0F0F0;stroke-width:9.72"/>
	<line x1="3073.44" y1="628.26" x2="3073.44" y2="563.46" style="stroke:#F0F0F0;stroke-width:9.72"/>
	<line x1="3073.44" y1="531.06" x2="3073.44" y2="466.26" style="stroke:#F0F0F0;stroke-width:9.72"/>
	<line x1="3073.44" y1="433.86" x2="3073.44" y2="369.06" style="stroke:#F0F0F0;stroke-width:9.72"/>
	<line x1="3073.44" y1="336.66" x2="3073.44" y2="271.86" style="stroke:#F0F0F0;stroke-width:9.72"/>
	<line x1="3073.44" y1="239.46" x2="3073.44" y2="174.66" style="stroke:#F0F0F0;stroke-width:9.72"/>
	<line x1="3073.44" y1="142.26" x2="3073.44" y2="113.40" style="stroke:#F0F0F0;stroke-width:9.72"/>
	<rect x="838.86" y="2560.11" width="419.68" height="206.55" style="fill:#FF8C19;fill-opacity:0.40"/>
	<rect x="841.29" y="2562.54" width="414.82" height="201.69" style="fill:none;stroke:#5FAAFF;stroke-width:4.86"/>
	<rect x="1258.54" y="2560.11" width="419.68" height="206.55" style="fill:#FF8C19;fill-opacity:0.40"/>
	<rect x="1260.97" y="2562.54" width="414.82" height="201.69" style="fill:none;stroke:#5FAAFF;stroke-width:4.86"/>
	<rect x="1678.22" y="288.56" width="419.68" height="2478.09" style="fill:#FF8C19;fill-opacity:0.40"/>
	<rect x="1680.65" y="290.99" width="414.82" height="2473.23" style="fill:none;stroke:#5FAAFF;stroke-width:4.86"/>
	<rect x="2097.90" y="1527.53" width="419.68" height="1239.13" style="fill:#FF8C19;fill-opacity:0.40"/>
	<rect x="2100.33" y="1529.96" width="414.82" height="1234.27" style="fill:none;stroke:#5FAAFF;stroke-width:4.86"/>
	<rect x="2517.58" y="701.49" width="419.68" height="2065.16" style="fill:#FF8C19;fill-opacity:0.40"/>
	<rect x="2520.01" y="703.92" width="414.82" height="2060.30" style="fill:none;stroke:#5FAAFF;stroke-width:4.86"/>
	<path d=" M838.86 2746.24 L845.78 2745.23 L852.86 2744.21 L859.78 2743.20 L866.87 2742.02 L873.96 2740.84 L880.88 2739.66 L887.96 2738.48 L894.88 2737.13 L901.97 2735.78 L909.06 2734.43 L915.98 2732.91 L923.06 2731.39 L929.98 2729.87 L937.07 2728.18 L943.99 2726.49 L951.08 2724.81 L958.16 2722.95 L965.08 2721.09 L972.17 2719.07 L979.09 2717.04 L986.18 2714.85 L993.26 2712.66 L1000.18 2710.29 L1007.27 2707.93 L1014.19 2705.57 L1021.28 2703.04 L1028.36 2700.34 L1035.28 2697.64 L1042.37 2694.77 L1049.29 2691.90 L1056.38 2688.86 L1063.46 2685.66 L1070.38 2682.45 L1077.47 2679.24 L1084.39 2675.70 L1091.47 2672.16 L1098.39 2668.44 L1105.48 2664.73 L1112.57 2660.68 L1119.49 2656.63 L1126.58 2652.58 L1133.49 2648.19 L1140.58 2643.81 L1147.67 2639.25 L1154.59 2634.53 L1161.68 2629.63 L1168.59 2624.57 L1175.68 2619.34 L1182.77 2614.11 L1189.69 2608.71 L1196.78 2602.97 L1203.69 2597.23 L1210.78 2591.32 L1217.70 2585.08 L1224.79 2578.84 L1231.88 2572.43 L1238.79 2565.84 L1245.88 2558.93 L1252.80 2552.01 L1259.89 2544.75 L1266.97 2537.49 L1273.89 2529.90 L1280.98 2522.14 L1287.90 2514.21 L1294.99 2506.11 L1302.08 2497.67 L1308.99 2489.06 L1316.08 2480.46 L1323.00 2471.51 L1330.09 2462.23 L1337.01 2452.95 L1344.09 2443.33 L1351.18 2433.54 L1358.10 2423.42 L1365.19 2413.29 L1372.11 2402.83 L1379.19 2392.03 L1386.28 2381.23 L1393.20 2370.09 L1400.29 2358.62 L1407.21 2347.14 L1414.29 2335.33 L1421.38 2323.18 L1428.30 2310.86 L1435.39 2298.38 L1442.31 2285.72 L1449.39 2272.73 L1456.31 2259.39 L1463.40 2246.06 L1470.49 2232.39 L1477.41 2218.39 L1484.49 2204.21 L1491.41 2189.87 L1498.50 2175.36 L1505.59 2160.51 L1512.51 2145.49 L1519.59 2130.13 L1526.51 2114.61 L1533.60 2098.91 L1540.69 2082.88 L1547.61 2066.68 L1554.69 2050.31 L1561.61 2033.78 L1568.70 2016.90 L1575.62 1999.86 L1582.71 1982.64 L1589.79 1965.26 L1596.71 1947.54 L1603.80 1929.83 L1610.72 1911.77 L1617.81 1893.54 L1624.89 1875.15 L1631.81 1856.59 L1638.90 1837.86 L1645.82 1818.96 L1652.91 1799.89 L1659.99 1780.82 L1666.91 1761.41 L1674.00 1741.84 L1680.92 1722.26 L1688.01 1702.52 L1694.93 1682.61 L1702.01 1662.69 L1709.10 1642.44 L1716.02 1622.36 L1723.11 1601.94 L1730.03 1581.53 L1737.11 1561.11 L1744.20 1540.52 L1751.12 1519.93 L1758.21 1499.34 L1765.13 1478.59 L1772.21 1458.00 L1779.30 1437.24 L1786.22 1416.32 L1793.31 1395.56 L1800.23 1374.81 L1807.31 1354.05 L1814.23 1333.29 L1821.32 1312.71 L1828.41 1291.95 L1835.33 1271.36 L1842.41 1250.78 L1849.33 1230.36 L1856.42 1209.94 L1863.51 1189.69 L1870.43 1169.44 L1877.51 1149.36 L1884.43 1129.44 L1891.52 1109.70 L1898.61 1089.96 L1905.53 1070.55 L1912.61 1051.14 L1919.53 1032.07 L1926.62 1013.01 L1933.54 994.28 L1940.63 975.71 L1947.71 957.49 L1954.63 939.43 L1961.72 921.54 L1968.64 903.99 L1975.73 886.78 L1982.81 869.74 L1989.73 853.03 L1996.82 836.49 L2003.74 820.46 L2010.83 804.60 L2017.91 789.24 L2024.83 774.06 L2031.92 759.21 L2038.84 744.86 L2045.93 730.86 L2052.84 717.19 L2059.93 703.86 L2067.02 690.86 L2073.94 678.38 L2081.03 666.39 L2087.94 654.75 L2095.03 643.44 L2102.12 632.64 L2109.04 622.35 L2116.13 612.39 L2123.04 602.94 L2130.13 594.00 L2137.22 585.56 L2144.14 577.46 L2151.23 569.87 L2158.14 562.78 L2165.23 556.20 L2172.15 550.13 L2179.24 544.56 L2186.32 539.49 L2193.24 534.77 L2200.33 530.72 L2207.25 527.18 L2214.34 524.14 L2221.43 521.61 L2228.34 519.58 L2235.43 518.06 L2242.35 517.05 L2249.44 516.71 L2256.53 516.71 L2263.44 517.22 L2270.53 518.40 L2277.45 520.09 L2284.54 522.11 L2291.63 524.81 L2298.54 528.02 L2305.63 531.73 L2312.55 535.95 L2319.64 540.68 L2326.56 545.74 L2333.64 551.47 L2340.73 557.72 L2347.65 564.47 L2354.74 571.56 L2361.66 579.32 L2368.74 587.42 L2375.83 596.03 L2382.75 605.14 L2389.84 614.76 L2396.76 624.71 L2403.84 635.18 L2410.93 646.14 L2417.85 657.45 L2424.94 669.26 L2431.86 681.41 L2438.94 694.07 L2445.86 706.89 L2452.95 720.39 L2460.04 734.06 L2466.96 748.24 L2474.04 762.75 L2480.96 777.60 L2488.05 792.79 L2495.14 808.31 L2502.06 824.34 L2509.14 840.38 L2516.06 856.91 L2523.15 873.79 L2530.24 890.83 L2537.16 908.21 L2544.24 925.76 L2551.16 943.65 L2558.25 961.88 L2565.17 980.27 L2572.26 998.83 L2579.34 1017.56 L2586.26 1036.63 L2593.35 1055.70 L2600.27 1075.11 L2607.36 1094.68 L2614.44 1114.43 L2621.36 1134.17 L2628.45 1154.25 L2635.37 1174.33 L2642.46 1194.58 L2649.54 1214.83 L2656.46 1235.25 L2663.55 1255.67 L2670.47 1276.26 L2677.56 1296.84 L2684.48 1317.60 L2691.56 1338.36 L2698.65 1359.11 L2705.57 1379.87 L2712.66 1400.63 L2719.58 1421.38 L2726.66 1442.14 L2733.75 1462.89 L2740.67 1483.65 L2747.76 1504.24 L2754.68 1524.99 L2761.76 1545.58 L2768.85 1566.00 L2775.77 1586.42 L2782.86 1606.84 L2789.78 1627.09 L2796.86 1647.34 L2803.78 1667.42 L2810.87 1687.33 L2817.96 1707.24 L2824.88 1726.99 L2831.96 1746.56 L2838.88 1765.97 L2845.97 1785.38 L2853.06 1804.61 L2859.98 1823.51 L2867.06 1842.41 L2873.98 1861.14 L2881.07 1879.54 L2888.16 1897.93 L2895.08 1916.16 L2902.16 1934.04 L2909.08 1951.76 L2916.17 1969.48 L2923.09 1986.86 L2930.18 2004.08 L2937.26 2020.95" stroke-linejoin="round" style="fill:none;stroke:#000000;stroke-width:9.72"/>
	<rect x="1014.86" y="2201.68" width="460.18" height="564.97" style="fill:#198DFF;fill-opacity:0.50"/>
	<rect x="1017.29" y="2204.11" width="455.32" height="560.11" style="fill:none;stroke:#5FAAFF;stroke-width:4.86"/>
	<rect x="1475.04" y="2390.01" width="460.18" height="376.65" style="fill:#198DFF;fill-opacity:0.50"/>
	<rect x="1477.47" y="2392.44" width="455.32" height="371.79" style="fill:none;stroke:#5FAAFF;stroke-width:4.86"/>
	<rect x="1935.23" y="1071.73" width="460.18" height="1694.93" style="fill:#198DFF;fill-opacity:0.50"/>
	<rect x="1937.66" y="1074.16" width="455.32" height="1690.07" style="fill:none;stroke:#5FAAFF;stroke-width:4.86"/>
	<rect x="2395.41" y="1071.73" width="460.18" height="1694.93" style="fill:#198DFF;fill-opacity:0.50"/>
	<rect x="2397.84" y="1074.16" width="455.32" height="1690.07" style="fill:none;stroke:#5FAAFF;stroke-width:4.86"/>
	<rect x="2855.59" y="1448.38" width="460.35" height="1318.28" style="fill:#198DFF;fill-opacity:0.50"/>
	<rect x="2858.02" y="1450.81" width="455.49" height="1313.42" style="fill:none;stroke:#5FAAFF;stroke-width:4.86"/>
	<line x1="557.72" y1="2766.66" x2="557.72" y2="113.40" style="stroke:#000000;stroke-width:6.48"/>
	<line x1="557.72" y1="2766.66" x2="512.83" y2="2766.66" style="stroke:#000000;stroke-width:6.48"/>
	<text x="490.22" y="2806.09" style="font-family:'Helvetica';font-size:112.56px;fill:#000000" text-anchor="end">0</text>
	<line x1="557.72" y1="1906.03" x2="512.83" y2="1906.03" style="stroke:#000000;stroke-width:6.48"/>
	<text x="490.22" y="1945.47" style="font-family:'Helvetica';font-size:112.56px;fill:#000000" text-anchor="end">.01</text>
	<line x1="557.72" y1="1045.41" x2="512.83" y2="1045.41" style="stroke:#000000;stroke-width:6.48"/>
	<text x="490.22" y="1084.84" style="font-family:'Helvetica';font-size:112.56px;fill:#000000" text-anchor="end">.02</text>
	<line x1="557.72" y1="184.61" x2="512.83" y2="184.61" style="stroke:#000000;stroke-width:6.48"/>
	<text x="490.22" y="224.05" style="font-family:'Helvetica';font-size:112.56px;fill:#000000" text-anchor="end">.03</text>
	<text x="214.55" y="1439.94" style="font-family:'Helvetica';font-size:112.56px;fill:#000000" transform="rotate(-90 214.55,1439.94)" text-anchor="middle">Density</text>
	<line x1="557.72" y1="2766.66" x2="3387.15" y2="2766.66" style="stroke:#000000;stroke-width:6.48"/>
	<line x1="656.61" y1="2766.66" x2="656.61" y2="2811.54" style="stroke:#000000;stroke-width:6.48"/>
	<text x="656.61" y="2912.86" style="font-family:'Helvetica';font-size:112.56px;fill:#000000" text-anchor="middle">0</text>
	<line x1="1260.90" y1="2766.66" x2="1260.90" y2="2811.54" style="stroke:#000000;stroke-width:6.48"/>
	<text x="1260.90" y="2912.86" style="font-family:'Helvetica';font-size:112.56px;fill:#000000" text-anchor="middle">20</text>
	<line x1="1865.03" y1="2766.66" x2="1865.03" y2="2811.54" style="stroke:#000000;stroke-width:6.48"/>
	<text x="1865.03" y="2912.86" style="font-family:'Helvetica';font-size:112.56px;fill:#000000" text-anchor="middle">40</text>
	<line x1="2469.15" y1="2766.66" x2="2469.15" y2="2811.54" style="stroke:#000000;stroke-width:6.48"/>
	<text x="2469.15" y="2912.86" style="font-family:'Helvetica';font-size:112.56px;fill:#000000" text-anchor="middle">60</text>
	<line x1="3073.44" y1="2766.66" x2="3073.44" y2="2811.54" style="stroke:#000000;stroke-width:6.48"/>
	<text x="3073.44" y="2912.86" style="font-family:'Helvetica';font-size:112.56px;fill:#000000" text-anchor="middle">80</text>
	<text x="1972.52" y="3070.31" style="font-family:'Helvetica';font-size:112.56px;fill:#000000" text-anchor="middle">age</text>
	<rect x="3425.96" y="1177.71" width="1821.83" height="524.64" style="fill:#FFFFFF"/>
	<rect x="3429.20" y="1180.95" width="1815.35" height="518.16" style="fill:none;stroke:#FFFFFF;stroke-width:6.48"/>
	<rect x="3474.56" y="1226.31" width="259.20" height="112.39" style="fill:#FF8C19;fill-opacity:0.40"/>
	<rect x="3476.99" y="1228.74" width="254.34" height="107.53" style="fill:none;stroke:#5FAAFF;stroke-width:4.86"/>
	<line x1="3474.56" y1="1439.94" x2="3733.76" y2="1439.94" style="stroke:#000000;stroke-width:9.72"/>
	<rect x="3474.56" y="1541.19" width="259.20" height="112.56" style="fill:#198DFF;fill-opacity:0.50"/>
	<rect x="3476.99" y="1543.62" width="254.34" height="107.70" style="fill:none;stroke:#5FAAFF;stroke-width:4.86"/>
	<text x="3801.26" y="1321.94" style="font-family:'Helvetica';font-size:112.56px;fill:#000000">Sampled from Normal</text>
	<text x="3801.26" y="1479.38" style="font-family:'Helvetica';font-size:112.56px;fill:#000000">Theoretical Normal</text>
	<text x="3801.26" y="1636.99" style="font-family:'Helvetica';font-size:112.56px;fill:#000000">Sampled from t-distribution</text>
</svg>
